<?xml version="1.0" encoding="UTF-8" standalone="no"?>
<!DOCTYPE svg PUBLIC "-//W3C//DTD SVG 20010904//EN"
              "http://www.w3.org/TR/2001/REC-SVG-20010904/DTD/svg10.dtd">

<svg xmlns="http://www.w3.org/2000/svg"
     width="2.75in" height="2.76042in"
     viewBox="0 0 264 265">
  <path id="Sélection #1"
        fill="none" stroke="black" stroke-width="1"
        d="M 196.00,164.00
           C 195.97,170.28 191.37,173.84 187.00,177.91
             175.57,188.57 166.84,193.77 151.00,193.99
             140.51,194.14 138.41,193.23 129.00,189.27
             108.72,180.73 98.24,167.55 91.66,147.00
             89.43,140.06 88.09,135.42 88.00,128.00
             87.54,86.99 133.97,56.70 171.00,75.64
             187.43,84.04 191.36,88.45 200.94,104.00
             203.71,108.50 207.74,115.69 206.00,121.00
             206.00,121.00 201.00,108.00 201.00,108.00
             202.26,117.54 204.67,130.40 199.00,139.00
             199.00,139.00 200.99,122.00 200.99,122.00
             200.99,122.00 200.00,107.00 200.00,107.00
             195.75,105.88 193.71,98.53 190.96,95.04
             185.95,88.67 176.89,81.59 169.42,78.34
             161.38,74.85 146.63,72.85 138.00,74.47
             134.19,75.18 129.69,77.04 126.00,78.37
             121.59,79.96 117.96,80.82 114.00,83.64
             107.88,88.00 106.55,91.29 102.41,96.72
             97.90,102.63 93.21,109.53 91.11,116.83
             89.40,123.50 90.71,126.61 91.11,133.00
             91.11,133.00 93.00,131.00 93.00,131.00
             93.00,131.00 94.00,131.00 94.00,131.00
             94.00,131.00 94.00,137.00 94.00,137.00
             94.04,161.43 114.81,181.52 137.00,188.28
             144.06,190.43 151.61,192.17 159.00,190.47
             166.80,188.68 174.96,183.30 181.00,178.25
             193.87,167.48 207.39,150.75 206.99,133.00
             206.99,133.00 206.00,122.00 206.00,122.00
             206.00,122.00 208.00,122.00 208.00,122.00
             208.00,122.00 208.90,132.00 208.90,132.00
             209.25,139.97 207.26,147.94 203.75,155.00
             201.68,159.17 200.83,162.98 196.00,164.00 Z
           M 136.00,162.00
           C 133.28,160.06 129.62,156.59 127.00,155.31
             121.83,152.80 119.25,155.86 111.11,146.99
             99.68,134.53 105.61,113.85 117.17,103.67
             121.91,99.50 127.97,97.27 134.00,95.63
             143.80,92.98 149.81,97.83 158.00,101.28
             158.00,101.28 165.00,103.56 165.00,103.56
             169.95,105.39 179.13,110.50 182.82,114.18
             195.11,126.48 193.22,151.98 180.00,163.00
             180.00,163.00 186.90,149.00 186.90,149.00
             191.00,137.47 189.47,123.64 179.96,115.32
             175.73,111.63 170.83,109.69 166.00,107.00
             168.07,111.31 170.85,115.39 172.22,120.00
             175.84,132.23 175.32,147.51 164.00,155.48
             160.09,158.23 156.77,159.24 152.00,158.90
             132.15,157.52 127.47,126.20 148.00,125.00
             144.74,130.61 140.54,129.64 138.01,136.00
             134.33,145.24 144.59,157.07 154.00,156.60
             164.97,156.05 171.96,144.06 171.92,134.00
             171.90,128.72 169.53,124.58 167.25,120.00
             165.37,116.23 163.07,111.27 160.47,108.04
             155.96,102.43 145.49,95.70 138.00,96.56
             122.27,98.35 104.82,119.09 108.39,135.00
             109.45,139.73 113.52,144.68 117.01,147.89
             120.86,151.42 122.99,152.21 128.00,153.00
             125.81,148.73 123.74,144.74 122.68,140.00
             120.96,132.29 123.04,119.86 126.80,113.00
             131.40,104.61 137.99,101.74 147.00,104.75
             150.70,105.99 152.03,106.63 154.00,110.00
             157.62,110.78 157.78,111.37 158.00,115.00
             165.18,119.96 160.15,140.88 150.00,138.00
             161.99,130.33 157.51,126.59 160.00,117.00
             155.19,114.07 153.68,109.94 147.00,107.34
             138.21,103.92 130.73,110.23 127.25,118.00
             124.90,123.23 124.68,127.38 124.81,133.00
             125.08,144.46 132.41,151.73 136.00,162.00 Z
           M 156.00,101.00
           C 156.00,101.00 155.00,101.00 155.00,101.00
             155.00,101.00 156.00,102.00 156.00,102.00
             156.00,102.00 156.00,101.00 156.00,101.00 Z
           M 199.00,105.00
           C 199.00,105.00 198.00,105.00 198.00,105.00
             198.00,105.00 199.00,106.00 199.00,106.00
             199.00,106.00 199.00,105.00 199.00,105.00 Z
           M 165.00,108.00
           C 165.00,108.00 164.00,108.00 164.00,108.00
             164.00,108.00 165.00,109.00 165.00,109.00
             165.00,109.00 165.00,108.00 165.00,108.00 Z
           M 156.00,110.00
           C 156.00,110.00 155.00,110.00 155.00,110.00
             155.00,110.00 156.00,111.00 156.00,111.00
             156.00,111.00 156.00,110.00 156.00,110.00 Z
           M 184.00,116.00
           C 184.00,116.00 183.00,116.00 183.00,116.00
             183.00,116.00 184.00,117.00 184.00,117.00
             184.00,117.00 184.00,116.00 184.00,116.00 Z
           M 186.00,119.00
           C 186.00,119.00 185.00,119.00 185.00,119.00
             185.00,119.00 186.00,120.00 186.00,120.00
             186.00,120.00 186.00,119.00 186.00,119.00 Z
           M 188.00,122.00
           C 188.00,122.00 187.00,122.00 187.00,122.00
             187.00,122.00 188.00,123.00 188.00,123.00
             188.00,123.00 188.00,122.00 188.00,122.00 Z
           M 131.00,153.00
           C 131.00,153.00 130.00,153.00 130.00,153.00
             130.00,153.00 131.00,154.00 131.00,154.00
             131.00,154.00 131.00,153.00 131.00,153.00 Z
           M 201.00,158.00
           C 201.00,158.00 200.00,158.00 200.00,158.00
             200.00,158.00 201.00,159.00 201.00,159.00
             201.00,159.00 201.00,158.00 201.00,158.00 Z
           M 199.00,162.00
           C 199.00,162.00 198.00,162.00 198.00,162.00
             198.00,162.00 199.00,163.00 199.00,163.00
             199.00,163.00 199.00,162.00 199.00,162.00 Z
           M 198.00,163.00
           C 198.00,163.00 197.00,163.00 197.00,163.00
             197.00,163.00 198.00,164.00 198.00,164.00
             198.00,164.00 198.00,163.00 198.00,163.00 Z
           M 196.00,166.00
           C 196.00,166.00 195.00,166.00 195.00,166.00
             195.00,166.00 196.00,167.00 196.00,167.00
             196.00,167.00 196.00,166.00 196.00,166.00 Z
           M 195.00,167.00
           C 195.00,167.00 194.00,167.00 194.00,167.00
             194.00,167.00 195.00,168.00 195.00,168.00
             195.00,168.00 195.00,167.00 195.00,167.00 Z
           M 194.00,168.00
           C 194.00,168.00 193.00,168.00 193.00,168.00
             193.00,168.00 194.00,169.00 194.00,169.00
             194.00,169.00 194.00,168.00 194.00,168.00 Z
           M 191.00,171.00
           C 191.00,171.00 190.00,171.00 190.00,171.00
             190.00,171.00 191.00,172.00 191.00,172.00
             191.00,172.00 191.00,171.00 191.00,171.00 Z" />
</svg>
